<?xml version="1.0" standalone="no"?>
<!DOCTYPE svg PUBLIC "-//W3C//DTD SVG 20010904//EN"
 "http://www.w3.org/TR/2001/REC-SVG-20010904/DTD/svg10.dtd">
<svg version="1.0" xmlns="http://www.w3.org/2000/svg"
 width="534.000000pt" height="360.000000pt" viewBox="0 0 534.000000 360.000000"
 preserveAspectRatio="xMidYMid meet">

<g transform="translate(0.000000,360.000000) scale(0.100000,-0.100000)"
fill="#000000" stroke="none">
<path d="M0 1800 l0 -1800 2670 0 2670 0 0 90 0 90 -477 1 c-1742 4 -2092 9
-2125 31 -10 6 -7 14 14 32 26 23 31 24 185 21 87 -1 205 1 263 5 l105 7 -105
4 c-58 2 -154 4 -215 5 -60 1 -126 4 -146 9 -22 4 -45 3 -56 -3 -23 -13 -85 3
-124 30 -20 15 -22 19 -9 27 11 7 -2 9 -45 6 -84 -5 -116 -12 -129 -25 -8 -8
0 -11 34 -9 80 5 122 0 117 -13 -2 -7 -15 -12 -28 -11 -38 4 -350 12 -498 14
-118 1 -132 3 -116 15 10 8 27 11 37 8 11 -3 25 0 33 6 18 15 68 20 205 20 76
0 99 3 83 10 -13 5 -23 12 -23 15 0 4 194 4 430 2 417 -5 430 -4 430 14 0 17
-8 19 -84 19 -46 0 -86 4 -88 10 -1 5 -41 16 -88 24 l-85 14 110 3 c61 2 133
4 160 4 28 1 124 3 215 5 l165 3 -105 9 c-58 5 -171 10 -252 11 -91 1 -148 6
-148 12 0 6 23 9 53 8 40 -2 46 0 27 6 -14 5 -44 9 -67 10 -23 1 -68 8 -100
16 -31 8 -69 15 -83 14 -24 -1 -23 -1 5 -9 17 -5 56 -14 88 -20 31 -6 57 -16
57 -21 0 -13 -47 -11 -56 2 -5 8 -32 9 -90 5 -53 -5 -85 -3 -89 4 -4 6 7 10
27 11 l33 1 -30 13 c-37 17 -88 20 -65 4 11 -7 6 -8 -20 -5 -114 16 -132 17
-125 7 3 -6 12 -11 19 -11 19 0 62 -37 54 -45 -4 -4 -44 5 -89 20 -45 15 -91
24 -104 21 -15 -4 -25 -1 -28 9 -5 10 -27 15 -84 18 -43 1 183 5 502 7 319 2
524 6 455 7 -76 2 -127 8 -131 15 -4 6 -12 7 -20 3 -10 -7 -243 -10 -259 -3
-3 1 27 4 65 8 l70 6 -87 2 c-49 1 -88 -2 -88 -7 0 -10 -457 -15 -484 -5 -38
14 -11 24 67 23 62 -1 74 -3 47 -9 l-35 -7 44 -2 c31 -1 47 4 57 17 10 14 27
17 101 16 99 -1 166 -9 184 -20 7 -4 9 -3 6 3 -4 6 14 10 46 10 111 0 157 5
165 19 5 10 39 14 127 17 105 2 96 3 -65 6 -102 3 -245 5 -318 5 -73 1 -123 3
-111 6 28 7 37 30 12 30 -10 0 -31 7 -47 15 -23 12 -61 14 -200 11 l-171 -5
85 16 c47 8 90 19 96 24 9 7 6 22 -12 57 -39 77 -32 106 31 116 58 10 80 -14
89 -93 l7 -61 44 0 c40 0 45 3 51 26 4 14 4 42 1 63 -6 45 -2 51 40 76 l33 19
30 -29 c31 -30 52 -85 48 -126 -3 -24 -2 -24 102 -27 58 -2 129 2 158 8 29 6
123 16 210 21 86 5 238 14 337 21 183 12 397 16 1245 21 261 2 481 4 488 5 9
2 12 132 12 612 l0 610 -58 0 c-32 0 -96 5 -142 11 -154 21 -224 17 -320 -20
-124 -47 -174 -84 -211 -156 -69 -132 -107 -158 -179 -123 -71 35 -86 103 -54
238 9 36 19 99 24 140 15 146 46 208 96 196 42 -11 153 -77 174 -104 19 -24
26 -25 99 -24 82 2 123 12 138 34 4 7 15 33 23 58 13 38 20 45 50 51 42 9 110
-18 155 -61 39 -37 51 -38 107 -12 26 12 59 22 74 22 l26 0 -5 398 c-4 324 -8
407 -21 452 -9 30 -13 69 -10 86 8 42 -12 111 -36 124 -10 5 -41 10 -68 10
-44 0 -54 -4 -76 -31 -14 -17 -26 -36 -26 -44 0 -7 -9 -41 -20 -76 -23 -73
-83 -149 -119 -149 -47 0 -221 155 -221 197 0 17 -50 65 -62 60 -7 -2 -20 -16
-27 -31 -12 -22 -12 -34 -1 -80 7 -30 19 -57 26 -60 15 -6 20 -36 6 -36 -4 0
-13 -24 -19 -54 -6 -30 -24 -80 -39 -111 -22 -49 -26 -66 -21 -116 4 -48 2
-61 -14 -75 -10 -9 -19 -23 -19 -31 0 -7 -9 -13 -19 -13 -11 0 -26 -7 -35 -15
-8 -8 -27 -18 -43 -21 -24 -5 -31 0 -48 28 -11 18 -23 49 -26 68 -9 48 -54
174 -86 238 -25 51 -26 58 -20 165 7 117 20 182 54 258 27 60 87 91 193 100
41 3 -88 6 -286 7 -349 2 -363 1 -409 -19 -56 -25 -149 -23 -202 5 -25 13 -62
16 -174 16 -138 0 -142 -1 -173 -27 -71 -60 -150 -69 -235 -27 -29 15 -55 33
-58 40 -4 12 -88 14 -487 14 l-481 0 0 -38 c-1 -52 -30 -91 -90 -118 -63 -30
-99 -30 -155 -1 -57 29 -83 65 -83 116 l0 41 -853 0 -854 0 0 -1800z m3810
1718 c23 -18 46 -48 83 -109 15 -25 22 -27 93 -31 76 -3 77 -4 114 -46 75 -84
105 -186 98 -327 -5 -84 -9 -101 -43 -167 -36 -69 -62 -144 -122 -366 l-25
-93 45 -67 c63 -91 67 -107 67 -238 0 -168 -20 -204 -113 -204 -51 0 -92 -13
-198 -63 -73 -34 -104 -42 -204 -52 -71 -8 -109 -22 -135 -50 -27 -29 -92 -35
-116 -11 -16 16 -19 36 -5 36 5 0 12 9 16 20 3 10 28 34 56 51 53 35 61 57 35
107 -17 34 -29 129 -27 204 1 44 -4 69 -24 108 l-25 50 2 268 3 267 -38 49
c-54 70 -69 111 -65 178 4 58 5 61 101 192 50 68 66 78 127 86 45 5 45 5 51
51 21 142 156 228 249 157z m-1313 -73 c21 -9 46 -23 57 -33 28 -25 66 -112
66 -153 0 -82 -108 -168 -193 -155 -114 19 -187 127 -151 228 36 103 130 151
221 113z m605 -10 c73 -30 127 -126 114 -203 -6 -41 -73 -147 -102 -163 -20
-10 -58 -17 -108 -18 -11 -1 -16 -4 -13 -8 4 -3 -1 -12 -10 -18 -15 -11 -15
-18 -5 -54 8 -24 19 -41 27 -41 8 0 15 -4 15 -8 0 -5 11 -14 24 -20 14 -6 43
-36 66 -66 41 -54 42 -58 38 -119 -3 -52 -9 -68 -33 -96 -17 -18 -29 -36 -28
-40 1 -3 -13 -6 -30 -7 -18 0 -49 -9 -69 -18 -52 -25 -83 -15 -132 42 -23 26
-61 67 -86 92 l-45 45 -3 -35 c-1 -19 -9 -78 -18 -130 -24 -142 -35 -281 -41
-522 l-5 -217 34 -55 c35 -59 64 -71 85 -37 8 13 19 17 36 14 19 -4 27 0 32
16 6 20 17 26 39 22 48 -9 76 -6 76 9 0 9 15 21 35 29 19 6 34 18 32 24 -3 17
57 21 70 5 11 -15 43 -126 43 -152 0 -42 -77 -72 -154 -61 -28 5 -50 2 -71 -9
-37 -19 -95 -20 -154 -2 -39 11 -49 11 -75 -3 -25 -13 -68 -16 -236 -16 -203
0 -206 0 -264 28 -33 15 -79 43 -103 63 -39 32 -43 39 -43 82 0 68 32 126 99
175 73 54 87 72 106 134 19 65 19 112 -1 276 -9 73 -14 169 -12 214 4 74 8 88
47 155 24 40 44 83 44 95 1 11 5 19 9 17 4 -3 17 4 28 14 27 25 121 45 171 37
22 -4 62 -22 89 -41 l50 -34 0 27 c1 94 101 185 202 185 47 -1 52 8 34 52 -12
30 -18 34 -49 33 -20 0 -34 -5 -31 -9 3 -4 3 -8 0 -8 -2 0 -11 14 -20 31 -14
28 -14 31 4 49 10 10 16 20 14 23 -10 10 35 106 67 147 33 41 69 65 119 81 38
11 54 10 92 -6z m-2038 -477 c74 -98 117 -300 132 -613 3 -77 14 -190 25 -252
27 -160 25 -207 -11 -279 -33 -65 -100 -125 -151 -135 -35 -8 -109 13 -150 42
-17 12 -29 32 -34 56 -9 50 -7 203 5 278 6 36 6 124 1 220 -13 252 9 499 53
590 13 28 30 64 38 80 24 56 56 60 92 13z m2007 -700 c-5 -15 -13 -28 -18 -31
-12 -7 -63 4 -63 13 0 16 33 41 45 36 8 -3 16 2 20 11 4 11 9 13 16 6 6 -6 6
-18 0 -35z m-1451 -307 c31 -37 69 -129 76 -186 8 -51 -14 -76 -81 -95 -86
-24 -162 14 -189 95 -19 53 -13 86 25 141 59 86 121 102 169 45z m-1160 -224
c6 -29 10 -66 10 -83 -1 -16 2 -47 5 -70 11 -66 -26 -109 -63 -72 -25 25 -6
128 25 128 7 0 13 5 13 11 0 15 -59 69 -76 69 -20 0 -28 25 -14 49 8 16 20 21
50 21 l39 0 11 -53z m1531 -226 c38 -39 39 -87 3 -130 -22 -27 -33 -31 -73
-31 -68 0 -150 27 -183 61 -25 24 -27 32 -18 50 18 33 126 79 188 79 46 0 58
-4 83 -29z m-833 -22 c5 -26 -51 -44 -88 -29 -33 14 -36 20 -18 38 19 19 102
11 106 -9z m2455 -10 c73 -24 129 -24 207 1 34 11 85 20 112 20 74 0 185 -37
245 -81 59 -44 63 -43 150 10 60 37 78 38 236 7 77 -15 180 -26 278 -30 202
-9 269 -19 292 -47 23 -29 22 -51 -7 -82 -27 -30 -38 -31 -291 -47 -99 -6
-223 -15 -275 -21 -105 -11 -178 -6 -260 18 -70 20 -79 20 -144 -11 -81 -38
-124 -45 -346 -56 -244 -12 -354 -3 -477 42 l-83 30 -67 -17 c-83 -21 -190
-16 -319 15 -85 21 -90 21 -147 5 -115 -32 -349 -22 -409 19 -63 42 -39 111
50 140 61 20 228 34 300 25 31 -4 149 -5 262 -2 191 5 209 4 265 -16 32 -11
70 -21 83 -21 26 0 78 28 127 68 44 36 106 62 135 56 14 -3 51 -14 83 -25z
m-1701 -316 c15 -15 28 -36 28 -47 1 -20 1 -20 15 -2 31 42 58 -5 33 -59 -14
-32 -26 -32 -34 0 -6 25 -28 34 -39 16 -3 -5 -19 -12 -35 -16 -34 -8 -55 8
-66 49 -5 21 0 32 26 56 18 16 35 30 38 30 3 0 19 -12 34 -27z m446 -424 c72
0 132 -5 132 -10 0 -5 -9 -9 -21 -9 -11 0 -18 -4 -15 -9 8 -12 -46 -21 -123
-20 l-66 2 73 7 c113 12 100 23 -17 15 -74 -6 -105 -4 -110 4 -4 6 -41 15 -82
20 l-74 9 85 -4 c47 -2 145 -4 218 -5z m-608 -8 c-8 -5 -32 -12 -52 -16 -31
-6 -38 -4 -38 9 0 13 11 16 53 16 34 -1 47 -4 37 -9z m417 -15 c11 -1 19 -4
17 -8 -6 -9 -123 -4 -147 7 -10 4 -24 2 -32 -5 -9 -7 -18 -10 -22 -6 -3 3 0 7
8 8 8 1 -11 5 -41 9 -31 4 -1 5 70 2 69 -4 135 -7 147 -7z m456 -3 c-7 -2 -21
-2 -30 0 -10 3 -4 5 12 5 17 0 24 -2 18 -5z m-810 -10 c-7 -2 -19 -2 -25 0 -7
3 -2 5 12 5 14 0 19 -2 13 -5z m525 -30 c-10 -2 -26 -2 -35 0 -10 3 -2 5 17 5
19 0 27 -2 18 -5z m75 0 c-7 -2 -19 -2 -25 0 -7 3 -2 5 12 5 14 0 19 -2 13 -5z
m593 0 c-7 -8 -367 -6 -374 2 -3 3 82 5 188 5 106 0 190 -3 186 -7z m-778 -20
c-10 -2 -28 -2 -40 0 -13 2 -5 4 17 4 22 1 32 -1 23 -4z m-5 -20 c-18 -2 -48
-2 -65 0 -18 2 -4 4 32 4 36 0 50 -2 33 -4z m70 0 c-7 -2 -19 -2 -25 0 -7 3
-2 5 12 5 14 0 19 -2 13 -5z m-78 -63 c-3 -5 -18 -10 -33 -10 -21 0 -24 2 -12
10 20 13 53 13 45 0z m145 -40 c0 -5 -4 -10 -10 -10 -5 0 -10 5 -10 10 0 6 5
10 10 10 6 0 10 -4 10 -10z m130 -4 c-11 -11 -90 -10 -101 2 -5 4 19 7 51 7
38 1 56 -3 50 -9z m365 -6 c14 -6 2 -8 -40 -8 -52 1 -55 2 -25 8 46 10 42 10
65 0z m-1235 -34 c0 -8 -48 -12 -66 -5 -13 5 -7 8 24 8 23 1 42 -1 42 -3z m95
-6 c-28 -12 -73 -12 -80 0 -4 6 14 10 47 9 39 0 48 -3 33 -9z m1072 -3 c3 -4
-41 -8 -98 -9 -57 0 -120 -3 -139 -4 -19 -2 -46 -3 -60 -2 -14 1 -79 2 -144 2
-87 1 -120 -2 -124 -11 -5 -18 -22 -16 -22 2 0 13 -21 15 -131 15 -72 0 -139
-5 -150 -10 -10 -6 -56 -9 -102 -8 -45 2 -75 6 -67 9 8 4 29 11 45 17 33 12
980 11 992 -1z m-1424 -4 c-7 -2 -21 -2 -30 0 -10 3 -4 5 12 5 17 0 24 -2 18
-5z m1102 -23 c4 -6 -6 -10 -22 -10 -22 0 -25 2 -13 10 19 12 27 12 35 0z
m-460 -20 c-3 -5 -30 -9 -58 -8 l-52 1 55 7 c30 4 56 7 58 8 2 1 0 -2 -3 -8z
m168 -2 c12 -1 -5 -4 -38 -7 -33 -4 -64 -4 -70 -1 -12 6 55 19 73 14 8 -2 23
-5 35 -6z m-397 -69 c60 2 116 -15 94 -29 -20 -13 -142 -11 -280 4 -103 11
-110 13 -70 19 69 11 142 14 175 8 17 -2 53 -4 81 -2z m-857 -75 c2 -2 -26 -4
-62 -4 -37 0 -67 4 -67 10 0 9 118 3 129 -6z m79 -1 c-10 -2 -26 -2 -35 0 -10
3 -2 5 17 5 19 0 27 -2 18 -5z m289 -9 c-3 -3 -12 -4 -19 -1 -8 3 -5 6 6 6 11
1 17 -2 13 -5z m380 -5 c-20 -11 -104 -20 -123 -12 -31 12 0 21 67 21 46 -1
66 -4 56 -9z m223 1 c33 -11 -93 -11 -135 0 -22 6 -12 8 40 8 39 0 81 -4 95
-8z m236 -1 c-26 -6 -43 -6 -50 1 -7 7 6 10 40 9 l49 -1 -39 -9z m104 1 c0 -5
-9 -10 -19 -10 -11 0 -23 5 -26 10 -4 6 5 10 19 10 14 0 26 -4 26 -10z m490 1
c0 -12 -26 -21 -63 -21 -17 0 -38 -6 -46 -14 -14 -12 -90 -21 -151 -17 -13 1
-13 3 -1 10 11 7 5 11 -24 17 -29 5 -40 3 -46 -9 -7 -12 -24 -14 -96 -10 -98
6 -123 13 -47 13 27 0 56 5 64 10 12 8 9 10 -12 10 -15 0 -30 5 -33 10 -4 7
73 10 224 10 129 0 231 -4 231 -9z"/>
<path d="M5298 783 c7 -3 16 -2 19 1 4 3 -2 6 -13 5 -11 0 -14 -3 -6 -6z"/>
<path d="M2593 773 c9 -2 23 -2 30 0 6 3 -1 5 -18 5 -16 0 -22 -2 -12 -5z"/>
<path d="M2815 756 c41 -8 59 -16 57 -25 -2 -9 3 -11 15 -6 10 5 32 10 50 13
17 2 34 10 37 18 4 12 -15 14 -107 13 l-112 -1 60 -12z"/>
<path d="M2625 750 c-4 -6 3 -10 14 -10 25 0 27 6 6 13 -8 4 -17 2 -20 -3z"/>
<path d="M3268 753 c7 -3 16 -2 19 1 4 3 -2 6 -13 5 -11 0 -14 -3 -6 -6z"/>
<path d="M2798 713 c12 -2 32 -2 45 0 12 2 2 4 -23 4 -25 0 -35 -2 -22 -4z"/>
<path d="M4270 710 c0 -5 5 -10 11 -10 5 0 7 5 4 10 -3 6 -8 10 -11 10 -2 0
-4 -4 -4 -10z"/>
<path d="M4304 712 c3 -5 19 -9 36 -10 17 0 28 4 25 9 -4 5 -20 9 -36 9 -17 0
-28 -4 -25 -8z"/>
<path d="M2733 703 c9 -2 23 -2 30 0 6 3 -1 5 -18 5 -16 0 -22 -2 -12 -5z"/>
<path d="M3307 673 c18 -2 50 -2 70 0 21 2 7 4 -32 4 -38 0 -55 -2 -38 -4z"/>
<path d="M4123 673 c26 -2 67 -2 90 0 23 2 2 3 -48 3 -49 0 -68 -1 -42 -3z"/>
<path d="M4298 673 c18 -2 45 -2 60 0 15 2 0 4 -33 4 -33 0 -45 -2 -27 -4z"/>
<path d="M4628 673 c134 -2 350 -2 480 0 130 1 21 2 -243 2 -264 0 -371 -1
-237 -2z"/>
<path d="M3039 641 c16 -10 258 -15 248 -5 -3 3 -63 8 -134 10 -80 2 -123 1
-114 -5z"/>
<path d="M4268 633 c12 -2 32 -2 45 0 12 2 2 4 -23 4 -25 0 -35 -2 -22 -4z"/>
<path d="M5288 633 c12 -2 30 -2 40 0 9 3 -1 5 -23 4 -22 0 -30 -2 -17 -4z"/>
<path d="M2353 613 c9 -2 25 -2 35 0 9 3 1 5 -18 5 -19 0 -27 -2 -17 -5z"/>
<path d="M2528 613 c7 -3 16 -2 19 1 4 3 -2 6 -13 5 -11 0 -14 -3 -6 -6z"/>
<path d="M2628 613 c6 -2 18 -2 25 0 6 3 1 5 -13 5 -14 0 -19 -2 -12 -5z"/>
<path d="M4198 598 c-3 -7 -27 -11 -69 -11 l-64 1 60 -8 c80 -11 310 -11 360
-1 28 6 -4 9 -112 10 -95 1 -153 5 -153 11 0 14 -17 13 -22 -2z"/>
<path d="M4650 580 c0 -6 123 -10 347 -10 190 0 344 2 341 5 -10 11 -688 15
-688 5z"/>
<path d="M2478 563 c12 -2 30 -2 40 0 9 3 -1 5 -23 4 -22 0 -30 -2 -17 -4z"/>
<path d="M4210 531 c0 -4 28 -8 63 -9 58 0 59 0 22 8 -53 12 -85 12 -85 1z"/>
<path d="M4155 490 c-74 -3 -111 -8 -95 -12 33 -10 1280 -15 1280 -6 0 8 -26
9 -595 13 -198 2 -385 5 -415 7 -30 2 -109 1 -175 -2z"/>
<path d="M4185 405 c-44 -12 -73 -25 -65 -28 8 -3 286 -7 618 -9 485 -3 602
-1 602 9 0 15 38 14 -595 14 -247 0 -456 3 -464 8 -7 5 -10 14 -7 20 9 14 9
14 -89 -14z"/>
<path d="M4313 418 c2 -7 11 -13 20 -12 10 0 35 1 58 2 61 3 37 22 -27 22 -40
0 -54 -4 -51 -12z"/>
<path d="M3258 383 c23 -2 59 -2 80 0 20 2 1 4 -43 4 -44 0 -61 -2 -37 -4z"/>
<path d="M2909 333 c-13 -15 -11 -16 21 -9 47 9 63 26 23 26 -17 0 -37 -8 -44
-17z"/>
<path d="M2315 330 c-4 -6 7 -10 25 -10 18 0 29 4 25 10 -3 6 -15 10 -25 10
-10 0 -22 -4 -25 -10z"/>
<path d="M4240 290 c-14 -4 -50 -9 -80 -10 -30 -1 -66 -6 -80 -10 -31 -10 -17
-10 698 -16 492 -3 562 -2 562 11 0 9 -10 15 -22 15 -13 1 -243 2 -513 4 -269
1 -501 5 -515 9 -14 3 -36 2 -50 -3z"/>
</g>
</svg>
